:FULLY-SPECIFIED
:FORCE-ALL-JOINTS-BE-3DOF
:DEGREES
408
root 7.18138 13.7899 -34.2523 158.903 75.2249 152.733
lfemur 18.794 -2.63589 -10.3863
ltibia 26.9225 -0 0
lfoot -23.3588 33.1584 -0.000121411
ltoes -26.57 0 0
rfemur -66.2627 -16.2857 8.2922
rtibia 79.0774 -0 0
rfoot -13.954 12.7782 -0.00165529
rtoes 8.1712 -0 0
lowerback 8.43049 4.88028 -11.7665
upperback -2.54719 5.1499 -1.19047
thorax -8.45079 3.0811 4.44475
lowerneck 0.565921 -11.6309 -11.3592
upperneck 3.32619 -15.816 9.2652
head 2.53358 -7.9077 4.01844
lclavicle -4.50956e-15 1.05552e-14 4.58717e-33
lhumerus -70.0882 -20.0084 106.422
lradius 100.313 -0 0
lwrist 50.7203 0 0
lhand -9.79958 42.8353 -0.000131516
lfingers 7.12502 -0 0
lthumb 15.8819 72.3937 9.9139e-05
rclavicle 1.26682e-14 3.64505e-15 5.76289e-33
rhumerus 49.7022 -4.762 -60.264
rradius 19.9146 -0 0
rwrist 18.7918 0 0
rhand -21.9236 -33.6447 -0.00640393
rfingers 7.12502 -0 0
rthumb 4.59339 -63.1692 0.0024531
409
root 7.18307 13.789 -34.2546 159.162 75.2329 152.989
lfemur 18.7245 -2.64192 -10.3686
ltibia 27.4081 -0 0
lfoot -23.3775 33.1698 -7.31104e-05
ltoes -26.3167 0 0
rfemur -66.261 -16.2863 8.29255
rtibia 79.079 -0 0
rfoot -13.9011 12.7215 -0.00222477
rtoes 7.94573 -0 0
lowerback 8.43343 4.88416 -11.6738
upperback -2.55358 5.16431 -1.1933
thorax -8.45194 3.0835 4.38784
lowerneck 0.552846 -11.6394 -11.3478
upperneck 3.28713 -15.8252 9.27497
head 2.52485 -7.91174 4.01944
lclavicle -4.37326e-15 1.05356e-14 0
lhumerus -70.0774 -20.0465 106.435
lradius 100.305 -0 0
lwrist 50.7284 0 0
lhand -9.78599 42.812 -0.000137054
lfingers 7.12502 -0 0
lthumb 15.8896 72.42 0.000167575
rclavicle 1.26273e-14 3.87533e-15 6.91185e-33
rhumerus 49.7009 -4.69723 -60.2224
rradius 19.9298 -0 0
rwrist 18.7229 0 0
rhand -21.8388 -33.7988 -0.00686919
rfingers 7.12502 -0 0
rthumb 4.62545 -63.0839 0.00209522
410
root 7.18525 13.7872 -34.2555 159.247 75.2199 153.057
lfemur 18.5245 -2.65915 -10.3176
ltibia 27.9057 -0 0
lfoot -23.3915 33.1784 -3.44123e-05
ltoes -26.0238 0 0
rfemur -66.2541 -16.2729 8.2932
rtibia 79.0806 -0 0
rfoot -13.8415 12.6575 -0.00280381
rtoes 7.71582 -0 0
lowerback 8.41829 4.88683 -11.6789
upperback -2.56099 5.1696 -1.18184
thorax -8.454 3.08704 4.40263
lowerneck 0.55933 -11.6358 -11.376
upperneck 3.24848 -15.8198 9.28579
head 2.51478 -7.90954 4.02848
lclavicle -4.458e-15 1.05527e-14 3.36847e-33
lhumerus -70.0601 -20.1073 106.456
lradius 100.299 -0 0
lwrist 50.7359 0 0
lhand -9.77229 42.7886 -0.000137054
lfingers 7.12502 -0 0
lthumb 15.899 72.4525 0.000247151
rclavicle 1.25832e-14 4.12295e-15 7.96358e-33
rhumerus 49.6998 -4.63645 -60.1833
rradius 19.9468 -0 0
rwrist 18.6507 0 0
rhand -21.752 -33.9565 -0.00710909
rfingers 7.12502 -0 0
rthumb 4.65505 -63.0051 0.00172238
411
root 7.1863 13.7847 -34.2571 159.297 75.1858 153.078
lfemur 18.2073 -2.68613 -10.2365
ltibia 28.4105 -0 0
lfoot -23.4003 33.1837 -9.0115e-06
ltoes -25.6973 0 0
rfemur -66.2342 -16.2339 8.29508
rtibia 79.0821 -0 0
rfoot -13.7762 12.5874 -0.00336284
rtoes 7.48443 -0 0
lowerback 8.40914 4.89058 -11.6943
upperback -2.57162 5.17394 -1.17575
thorax -8.46346 3.09095 4.41678
lowerneck 0.553975 -11.6349 -11.3675
upperneck 3.2208 -15.8159 9.26617
head 2.50468 -7.9078 4.02246
lclavicle -4.70396e-15 1.06022e-14 1.30022e-32
lhumerus -70.0369 -20.1889 106.484
lradius 100.294 -0 0
lwrist 50.7424 0 0
lhand -9.7587 42.7653 -0.000131516
lfingers 7.12502 -0 0
lthumb 15.91 72.4905 0.000333497
rclavicle 1.25367e-14 4.38474e-15 8.86852e-33
rhumerus 49.6988 -4.58033 -60.1472
rradius 19.9653 -0 0
rwrist 18.5759 0 0
rhand -21.6645 -34.1155 -0.00710909
rfingers 7.12502 -0 0
rthumb 4.68183 -62.9338 0.00134982
412
root 7.18724 13.784 -34.2582 159.48 75.1906 153.212
lfemur 17.7856 -2.72127 -10.1285
ltibia 28.9179 -0 0
lfoot -23.4034 33.1856 0
ltoes -25.3435 0 0
rfemur -66.2022 -16.1715 8.29813
rtibia 79.0835 -0 0
rfoot -13.7058 12.5119 -0.00387457
rtoes 7.25452 -0 0
lowerback 8.37509 4.887 -11.6561
upperback -2.58456 5.17754 -1.17495
thorax -8.45461 3.09105 4.39804
lowerneck 0.537285 -11.6305 -11.3368
upperneck 3.19467 -15.8066 9.24884
head 2.49476 -7.90268 4.01368
lclavicle -5.09874e-15 1.06818e-14 2.80199e-32
lhumerus -70.0085 -20.2891 106.518
lradius 100.289 -0 0
lwrist 50.748 0 0
lhand -9.7455 42.7427 -0.000120843
lfingers 7.12502 -0 0
lthumb 15.9225 72.5334 0.000422216
rclavicle 1.24881e-14 4.65756e-15 9.58515e-33
rhumerus 49.6979 -4.52954 -60.1146
rradius 19.985 -0 0
rwrist 18.4992 0 0
rhand -21.5777 -34.2732 -0.00686919
rfingers 7.12502 -0 0
rthumb 4.70546 -62.8709 0.000993515
413
root 7.18822 13.7838 -34.26 159.553 75.156 153.239
lfemur 17.2725 -2.76295 -9.99684
ltibia 29.4227 -0 0
lfoot -23.3998 33.1631 -0.000201903
ltoes -24.9684 0 0
rfemur -66.1593 -16.0877 8.30228
rtibia 79.0848 -0 0
rfoot -13.6315 12.4321 -0.00431488
rtoes 7.02905 -0 0
lowerback 8.33047 4.87145 -11.599
upperback -2.58068 5.16826 -1.2068
thorax -8.41337 3.08127 4.33826
lowerneck 0.518421 -11.6213 -11.3049
upperneck 3.16499 -15.7911 9.24182
head 2.48428 -7.89433 4.00813
lclavicle -5.62994e-15 1.07889e-14 4.73618e-32
lhumerus -69.9754 -20.406 106.557
lradius 100.287 -0 0
lwrist 50.7526 0 0
lhand -9.73291 42.7211 -0.000105821
lfingers 7.12502 -0 0
lthumb 15.9362 72.5807 0.000509044
rclavicle 1.24382e-14 4.93826e-15 1.00813e-32
rhumerus 49.6972 -4.48473 -60.0858
rradius 20.0056 -0 0
rwrist 18.4214 0 0
rhand -21.4929 -34.4273 -0.00640393
rfingers 7.12502 -0 0
rthumb 4.72558 -62.8173 0.000669676
414
root 7.1889 13.7838 -34.2613 159.808 75.1579 153.448
lfemur 16.6811 -2.80953 -9.8446
ltibia 29.9203 -0 0
lfoot -23.3894 33.0978 -0.000780601
ltoes -24.578 0 0
rfemur -66.1064 -15.9844 8.30748
rtibia 79.086 -0 0
rfoot -13.554 12.3489 -0.00466356
rtoes 6.811 -0 0
lowerback 8.28851 4.86633 -11.5533
upperback -2.58078 5.17351 -1.18193
thorax -8.38768 3.08112 4.34237
lowerneck 0.485227 -11.6158 -11.3047
upperneck 3.15811 -15.7788 9.21056
head 2.48369 -7.88795 3.99804
lclavicle -6.28515e-15 1.09209e-14 6.98523e-32
lhumerus -69.9384 -20.5375 106.601
lradius 100.286 0 0
lwrist 50.756 0 0
lhand -9.72119 42.7011 -8.75839e-05
lfingers 7.12502 -0 0
lthumb 15.951 72.6316 0.000589995
rclavicle 1.23874e-14 5.22369e-15 1.03349e-32
rhumerus 49.6965 -4.44658 -60.0613
rradius 20.0268 -0 0
rwrist 18.3433 0 0
rhand -21.4113 -34.5754 -0.00574183
rfingers 7.12502 -0 0
rthumb 4.74184 -62.7741 0.000394229
415
root 7.18829 13.7839 -34.2632 159.956 75.1731 153.533
lfemur 16.024 -2.85942 -9.67498
ltibia 30.4059 -0 0
lfoot -23.3726 32.9928 -0.00168577
ltoes -24.1784 0 0
rfemur -66.0448 -15.8639 8.31367
rtibia 79.087 -0 0
rfoot -13.4743 12.2633 -0.00490496
rtoes 6.60332 -0 0
lowerback 8.24406 4.85768 -11.5309
upperback -2.58858 5.17112 -1.16296
thorax -8.36961 3.079 4.35404
lowerneck 0.465853 -11.594 -11.3035
upperneck 3.13413 -15.7471 9.22305
head 2.47735 -7.87156 4.00329
lclavicle -7.05197e-15 1.10754e-14 9.42563e-32
lhumerus -69.8978 -20.6814 106.65
lradius 100.287 -0 0
lwrist 50.7581 0 0
lhand -9.7106 42.6829 -6.75574e-05
lfingers 7.12502 -0 0
lthumb 15.9666 72.6856 0.000661487
rclavicle 1.23364e-14 5.51069e-15 1.03349e-32
rhumerus 49.6961 -4.41574 -60.0414
rradius 20.0483 -0 0
rwrist 18.2655 0 0
rhand -21.3344 -34.7151 -0.00492428
rfingers 7.12502 -0 0
rthumb 4.75389 -62.742 0.000182199
416
root 7.18615 13.7826 -34.2617 160.1 75.1381 153.639
lfemur 15.3147 -2.91108 -9.49126
ltibia 30.8745 -0 0
lfoot -23.3499 32.8513 -0.00285688
ltoes -23.7759 0 0
rfemur -65.9753 -15.728 8.32081
rtibia 79.0879 -0 0
rfoot -13.3933 12.1763 -0.00502838
rtoes 6.40897 -0 0
lowerback 8.26165 4.85447 -11.5707
upperback -2.58914 5.16157 -1.12774
thorax -8.38666 3.07787 4.41402
lowerneck 0.452728 -11.5881 -11.3183
upperneck 3.09497 -15.7362 9.22486
head 2.46792 -7.86608 4.00704
lclavicle -7.918e-15 1.125e-14 1.19331e-31
lhumerus -69.8545 -20.8357 106.702
lradius 100.289 -0 0
lwrist 50.7588 0 0
lhand -9.70137 42.6671 -4.73842e-05
lfingers 7.12502 -0 0
lthumb 15.983 72.7421 0.000720445
rclavicle 1.22856e-14 5.79612e-15 1.00813e-32
rhumerus 49.6957 -4.3929 -60.0268
rradius 20.0698 -0 0
rwrist 18.1888 0 0
rhand -21.2635 -34.8439 -0.00400386
rfingers 7.12502 -0 0
rthumb 4.76138 -62.7221 4.70563e-05
417
root 7.18363 13.781 -34.2623 160.404 75.1504 153.916
lfemur 14.566 -2.96312 -9.29672
ltibia 31.3214 -0 0
lfoot -23.322 32.6764 -0.00422659
ltoes -23.3763 0 0
rfemur -65.899 -15.5789 8.32884
rtibia 79.0886 -0 0
rfoot -13.3118 12.0889 -0.00502838
rtoes 6.23093 -0 0
lowerback 8.26164 4.84642 -11.5295
upperback -2.58249 5.15776 -1.08035
thorax -8.37913 3.07436 4.4437
lowerneck 0.398234 -11.5839 -11.302
upperneck 3.10095 -15.725 9.20761
head 2.47463 -7.85923 3.99692
lclavicle -8.87084e-15 1.1442e-14 1.4387e-31
lhumerus -69.8089 -20.9984 106.757
lradius 100.293 -0 0
lwrist 50.7787 0 0
lhand -9.69376 42.6541 -2.88324e-05
lfingers 7.12502 -0 0
lthumb 15.9999 72.8004 0.000764387
rclavicle 1.22357e-14 6.07682e-15 9.58515e-33
rhumerus 49.6955 -4.3787 -60.0176
rradius 20.091 -0 0
rwrist 18.114 0 0
rhand -21.1999 -34.9595 -0.00304215
rfingers 7.12502 -0 0
rthumb 4.76395 -62.7152 0
418
root 7.1802 13.7817 -34.2613 160.807 75.1724 154.287
lfemur 13.7909 -3.0143 -9.09467
ltibia 31.7418 -0 0
lfoot -23.2892 32.4714 -0.00572384
ltoes -22.9859 0 0
rfemur -65.817 -15.4185 8.33769
rtibia 79.0892 -0 0
rfoot -13.2308 12.0019 -0.00490496
rtoes 6.07215 -0 0
lowerback 8.26179 4.83165 -11.4314
upperback -2.57207 5.14985 -1.06468
thorax -8.35751 3.0645 4.40921
lowerneck 0.36344 -11.5782 -11.2588
upperneck 3.07412 -15.7144 9.23577
head 2.47009 -7.85217 3.9985
lclavicle -9.89809e-15 1.1649e-14 1.66749e-31
lhumerus -69.7618 -21.1674 106.813
lradius 100.298 -0 0
lwrist 50.8367 0 0
lhand -9.68801 42.6443 -1.3684e-05
lfingers 7.12502 -0 0
lthumb 16.0172 72.8599 0.000791494
rclavicle 1.21871e-14 6.34964e-15 8.86852e-33
rhumerus 49.6954 -4.37382 -60.0145
rradius 20.1116 -0 0
rwrist 18.0418 0 0
rhand -21.1448 -35.0595 -0.00210688
rfingers 7.12502 0 0
rthumb 4.80665 -62.7323 -0.00105651
419
root 7.17584 13.7828 -34.2609 161.133 75.1593 154.614
lfemur 13.0026 -3.06353 -8.88852
ltibia 32.1308 -0 0
lfoot -23.2521 32.2395 -0.0072764
ltoes -22.6108 0 0
rfemur -65.7304 -15.249 8.3473
rtibia 79.0895 -0 0
rfoot -13.1511 11.9163 -0.00466356
rtoes 5.9356 -0 0
lowerback 8.30848 4.81906 -11.3072
upperback -2.55233 5.14049 -1.0761
thorax -8.34687 3.05188 4.32858
lowerneck 0.380416 -11.5838 -11.24
upperneck 3.00901 -15.7251 9.33099
head 2.45541 -7.85638 4.02583
lclavicle -1.09874e-14 1.18685e-14 1.86955e-31
lhumerus -69.7136 -21.3406 106.871
lradius 100.304 -0 0
lwrist 50.9298 0 0
lhand -9.68438 42.6381 -3.60556e-06
lfingers 7.12502 -0 0
lthumb 16.0347 72.92 0.000800654
rclavicle 1.21406e-14 6.61143e-15 7.96358e-33
rhumerus 49.6648 -4.37367 -59.968
rradius 20.1313 -0 0
rwrist 17.9729 0 0
rhand -21.0997 -35.1415 -0.00126869
rfingers 7.12502 -0 0
rthumb 4.9294 -62.7815 -0.00402289
420
root 7.16823 13.7832 -34.2595 161.866 75.1775 155.327
lfemur 12.2141 -3.10993 -8.68171
ltibia 32.4835 -0 0
lfoot -23.2111 31.9837 -0.00881435
ltoes -22.257 0 0
rfemur -65.6402 -15.0724 8.3576
rtibia 79.0896 0 0
rfoot -13.0736 11.8331 -0.00431488
rtoes 5.82424 -0 0
lowerback 8.35282 4.78961 -11.1154
upperback -2.54129 5.11779 -1.04596
thorax -8.33941 3.03081 4.25798
lowerneck 0.32862 -11.5843 -11.1805
upperneck 2.98835 -15.7214 9.35234
head 2.45434 -7.85225 4.02141
lclavicle -1.21262e-14 1.20981e-14 2.03617e-31
lhumerus -69.6649 -21.5159 106.93
lradius 100.311 -0 0
lwrist 51.0553 0 0
lhand -9.68312 42.6359 0
lfingers 7.12502 -0 0
lthumb 16.0521 72.9802 0.000791494
rclavicle 1.20965e-14 6.85905e-15 6.91185e-33
rhumerus 49.5758 -4.37309 -59.8329
rradius 20.1498 -0 0
rwrist 17.9081 0 0
rhand -21.0659 -35.203 -0.000597149
rfingers 7.12502 -0 0
rthumb 5.1242 -62.8597 -0.00851384
